<svg width="16" height="16" viewBox="0 0 16 16" fill="none" xmlns="http://www.w3.org/2000/svg">
<path d="M14.25 0.1875H1.75C1.3356 0.1875 0.938171 0.35212 0.645146 0.645146C0.35212 0.938171 0.1875 1.3356 0.1875 1.75V14.25C0.1875 14.6644 0.35212 15.0618 0.645146 15.3549C0.938171 15.6479 1.3356 15.8125 1.75 15.8125H14.25C14.6644 15.8125 15.0618 15.6479 15.3549 15.3549C15.6479 15.0618 15.8125 14.6644 15.8125 14.25V1.75C15.8125 1.3356 15.6479 0.938171 15.3549 0.645146C15.0618 0.35212 14.6644 0.1875 14.25 0.1875ZM13.9375 2.0625V13.3313C13.3037 11.9797 12.2262 10.886 10.8844 10.232C11.4492 9.66256 11.8328 8.93864 11.9869 8.15151C12.1409 7.36438 12.0585 6.54925 11.7501 5.80887C11.4416 5.06849 10.9209 4.43598 10.2535 3.99105C9.58619 3.54613 8.80207 3.30871 8 3.30871C7.19793 3.30871 6.41381 3.54613 5.74646 3.99105C5.07911 4.43598 4.55839 5.06849 4.24993 5.80887C3.94148 6.54925 3.85909 7.36438 4.01314 8.15151C4.1672 8.93864 4.55081 9.66256 5.11563 10.232C3.77376 10.886 2.69628 11.9797 2.0625 13.3313V2.0625H13.9375ZM5.8125 7.375C5.8125 6.94235 5.94079 6.51942 6.18116 6.15969C6.42153 5.79996 6.76317 5.51958 7.16288 5.35401C7.56259 5.18845 8.00243 5.14513 8.42676 5.22953C8.85109 5.31394 9.24087 5.52228 9.5468 5.8282C9.85272 6.13413 10.0611 6.52391 10.1455 6.94824C10.2299 7.37257 10.1866 7.81241 10.021 8.21212C9.85542 8.61183 9.57504 8.95347 9.21531 9.19384C8.85558 9.43421 8.43265 9.5625 8 9.5625C7.41984 9.5625 6.86344 9.33203 6.4532 8.9218C6.04297 8.51156 5.8125 7.95516 5.8125 7.375ZM8 11.4375C9.07223 11.4332 10.1128 11.8006 10.9445 12.4773C11.4391 12.8782 11.8476 13.3748 12.1453 13.9375H3.85469C4.15244 13.3748 4.56089 12.8782 5.05547 12.4773C5.88719 11.8006 6.92777 11.4332 8 11.4375Z" fill="#B8952E"/>
</svg>
